<?xml version="1.0" encoding="UTF-8"?><svg xmlns="http://www.w3.org/2000/svg" xmlns:xlink="http://www.w3.org/1999/xlink" width="810pt" zoomAndPan="magnify" viewBox="0 0 810 809.999993" height="809.999993pt" preserveAspectRatio="xMidYMid meet" version="1.2"><defs><clipPath xml:id="clip1" id="clip1"><path d="M 12 16.835938 L 369 16.835938 L 369 795.335938 L 12 795.335938 Z M 12 16.835938 "/></clipPath></defs><g xml:id="surface1" id="surface1"><g clip-rule="nonzero" clip-path="url(#clip1)"><path style=" stroke:none;fill-rule:nonzero;fill:rgb(0%,29.019165%,67.83905%);fill-opacity:1;" d="M 158.105469 649.089844 C 159.140625 684.683594 131.167969 714.332031 95.601562 715.371094 C 94.976562 715.441406 94.355469 715.441406 93.734375 715.441406 C 58.167969 715.164062 29.574219 686.136719 29.851562 650.609375 C 30.058594 615.363281 58.511719 586.820312 93.734375 586.609375 C 128.542969 586.609375 157.066406 614.324219 158.105469 649.089844 Z M 158.378906 131.011719 C 159.277344 166.605469 131.167969 196.117188 95.601562 197.015625 C 94.976562 197.015625 94.355469 197.015625 93.734375 197.015625 C 58.167969 197.292969 29.226562 168.609375 28.953125 133.015625 C 28.746094 97.421875 57.40625 68.394531 92.976562 68.1875 C 93.25 68.1875 93.457031 68.1875 93.734375 68.1875 C 128.75 68.050781 157.480469 95.972656 158.378906 131.011719 Z M 351.140625 163.910156 L 351.140625 474.300781 L 237.046875 601.679688 C 232.761719 606.445312 230.414062 612.597656 230.414062 618.957031 L 230.414062 678.464844 C 230.414062 733.476562 185.867188 778.058594 130.890625 778.058594 L 105.820312 778.058594 C 95.667969 778.058594 87.382812 769.761719 87.382812 759.605469 L 87.382812 732.511719 C 132.34375 735.964844 171.640625 702.308594 175.164062 657.382812 C 178.683594 612.320312 145.050781 572.996094 100.089844 569.539062 C 95.875 569.195312 91.664062 569.195312 87.449219 569.539062 L 87.449219 214.085938 C 132.410156 217.542969 171.710938 183.882812 175.164062 138.890625 C 178.617188 93.898438 144.914062 54.640625 99.949219 51.117188 C 95.808594 50.839844 91.59375 50.839844 87.449219 51.117188 C 87.65625 42.476562 94.082031 35.289062 102.644531 34.113281 L 147.054688 34.113281 C 178.753906 35.84375 209.625 44.757812 237.390625 60.171875 L 320.0625 109.242188 C 339.332031 120.644531 351.140625 141.449219 351.210938 163.910156 Z M 368.476562 163.910156 C 368.476562 135.367188 353.417969 108.894531 328.902344 94.382812 L 246.023438 45.171875 C 215.773438 28.308594 182.070312 18.632812 147.535156 16.835938 L 101.746094 16.835938 C 82.753906 18.632812 68.734375 35.359375 70.320312 54.363281 C 27.085938 67.289062 2.570312 112.835938 15.484375 156.101562 C 23.359375 182.363281 43.871094 202.960938 70.183594 210.839844 L 70.183594 572.789062 C 27.019531 585.78125 2.5 631.328125 15.554688 674.59375 C 23.425781 700.789062 43.9375 721.3125 70.113281 729.261719 L 70.113281 759.605469 C 70.113281 779.300781 86.070312 795.335938 105.820312 795.335938 L 130.824219 795.335938 C 195.398438 795.335938 247.679688 743.015625 247.679688 678.464844 L 247.679688 618.957031 C 247.679688 616.882812 248.511719 614.808594 249.890625 613.21875 L 368.476562 480.9375 L 368.476562 163.910156 "/></g></g></svg>